<?xml version="1.0" standalone="no"?>
<!DOCTYPE svg PUBLIC "-//W3C//DTD SVG 20010904//EN"
 "http://www.w3.org/TR/2001/REC-SVG-20010904/DTD/svg10.dtd">
<svg version="1.0" xmlns="http://www.w3.org/2000/svg"
 width="520.000000pt" height="520.000000pt" viewBox="0 0 520.000000 520.000000"
 preserveAspectRatio="xMidYMid meet">
<metadata>
Created by potrace 1.14, written by Peter Selinger 2001-2017
</metadata>
<g transform="translate(0.000000,520.000000) scale(0.100000,-0.100000)"
fill="#000000" stroke="none">
<path d="M0 2600 l0 -2600 2600 0 2600 0 0 2600 0 2600 -2600 0 -2600 0 0
-2600z m2550 1950 l0 -600 -600 0 -600 0 0 600 0 600 600 0 600 0 0 -600z
m1300 0 l0 -600 -600 0 -600 0 0 600 0 600 600 0 600 0 0 -600z m-2600 -1300
l0 -600 -600 0 -600 0 0 600 0 600 600 0 600 0 0 -600z m1300 0 l0 -600 -600
0 -600 0 0 600 0 600 600 0 600 0 0 -600z m1300 0 l0 -600 -600 0 -600 0 0
600 0 600 600 0 600 0 0 -600z m1300 0 l0 -600 -600 0 -600 0 0 600 0 600 600
0 600 0 0 -600z m-3900 -1300 l0 -600 -600 0 -600 0 0 600 0 600 600 0 600 0
0 -600z m1300 0 l0 -600 -600 0 -600 0 0 600 0 600 600 0 600 0 0 -600z m1300
0 l0 -600 -600 0 -600 0 0 600 0 600 600 0 600 0 0 -600z m1300 0 l0 -600
-600 0 -600 0 0 600 0 600 600 0 600 0 0 -600z m-2600 -1300 l0 -600 -600 0
-600 0 0 600 0 600 600 0 600 0 0 -600z m1300 0 l0 -600 -600 0 -600 0 0 600
0 600 600 0 600 0 0 -600z"/>
</g>
</svg>
